<?xml version="1.0"?>
<svg xmlns="http://www.w3.org/2000/svg" id="OutLine" viewBox="0 0 512 512" width="512" height="512"><path d="M256,144a32,32,0,1,0-32-32A32.032,32.032,0,0,0,256,144Zm0-48a16,16,0,1,1-16,16A16.021,16.021,0,0,1,256,96Z"/><circle cx="176" cy="288" r="8"/><circle cx="208" cy="288" r="8"/><circle cx="336" cy="288" r="8"/><circle cx="176" cy="320" r="8"/><circle cx="208" cy="320" r="8"/><circle cx="240" cy="320" r="8"/><circle cx="272" cy="320" r="8"/><circle cx="304" cy="320" r="8"/><circle cx="240" cy="288" r="8"/><circle cx="272" cy="288" r="8"/><circle cx="304" cy="288" r="8"/><circle cx="176" cy="256" r="8"/><circle cx="208" cy="256" r="8"/><circle cx="336" cy="256" r="8"/><circle cx="240" cy="256" r="8"/><circle cx="272" cy="256" r="8"/><circle cx="304" cy="256" r="8"/><circle cx="176" cy="224" r="8"/><circle cx="208" cy="224" r="8"/><circle cx="336" cy="224" r="8"/><circle cx="240" cy="224" r="8"/><circle cx="272" cy="224" r="8"/><circle cx="304" cy="224" r="8"/><circle cx="336" cy="320" r="8"/><circle cx="176" cy="352" r="8"/><circle cx="208" cy="352" r="8"/><circle cx="240" cy="352" r="8"/><circle cx="272" cy="352" r="8"/><circle cx="304" cy="352" r="8"/><circle cx="336" cy="352" r="8"/><circle cx="176" cy="384" r="8"/><circle cx="208" cy="384" r="8"/><circle cx="240" cy="384" r="8"/><circle cx="272" cy="384" r="8"/><circle cx="304" cy="384" r="8"/><circle cx="336" cy="384" r="8"/><circle cx="176" cy="416" r="8"/><circle cx="208" cy="416" r="8"/><circle cx="240" cy="416" r="8"/><circle cx="272" cy="416" r="8"/><circle cx="304" cy="416" r="8"/><circle cx="336" cy="416" r="8"/><path d="M104,480a8,8,0,0,0,0,16H408a8,8,0,0,0,0-16H392V460.609A40.025,40.025,0,0,0,416,424V56a40.047,40.047,0,0,0-40-40H136A40.047,40.047,0,0,0,96,56V424a40.025,40.025,0,0,0,24,36.609V480Zm272,0H136V464H376Zm24-81.367A24.051,24.051,0,0,1,384,376V120a24.051,24.051,0,0,1,16-22.633ZM112,97.367A24.051,24.051,0,0,1,128,120V376a24.051,24.051,0,0,1-16,22.633ZM112,424v-8.809A40.067,40.067,0,0,0,144,376V120a40.067,40.067,0,0,0-32-39.191V56a24.027,24.027,0,0,1,24-24H376a24.027,24.027,0,0,1,24,24V80.809A40.067,40.067,0,0,0,368,120V376a40.067,40.067,0,0,0,32,39.191V424a24.027,24.027,0,0,1-24,24H136A24.027,24.027,0,0,1,112,424Z"/></svg>
