<svg height="511pt" viewBox="-69 1 511 511.999" width="511pt" xmlns="http://www.w3.org/2000/svg"><path d="m264.121094 460.871094h-.339844c-4.140625 0-7.492188 3.355468-7.492188 7.492187s3.351563 7.492188 7.492188 7.492188h.339844c4.136718 0 7.492187-3.355469 7.492187-7.492188s-3.355469-7.492187-7.492187-7.492187zm0 0"/><path d="m294.300781 460.871094h-.339843c-4.140626 0-7.492188 3.355468-7.492188 7.492187s3.351562 7.492188 7.492188 7.492188h.339843c4.140625 0 7.492188-3.355469 7.492188-7.492188s-3.355469-7.492187-7.492188-7.492187zm0 0"/><path d="m347.601562 187.214844c0-20.640625-3.859374-40.738282-11.464843-59.734375-1.539063-3.84375-5.902344-5.707031-9.742188-4.171875-3.84375 1.539062-5.710937 5.902344-4.171875 9.742187 6.894532 17.21875 10.390625 35.441407 10.390625 54.164063 0 80.132812-65.105469 145.328125-145.128906 145.328125s-145.128906-65.195313-145.128906-145.328125c0-80.132813 65.105469-145.328125 145.128906-145.328125 46.511719 0 90.554687 22.585937 117.808594 60.414062 2.417969 3.359375 7.105469 4.117188 10.460937 1.699219 3.355469-2.417969 4.117188-7.101562 1.699219-10.460938-30.066406-41.726562-78.652344-66.636718-129.96875-66.636718-88.289063 0-160.117187 71.914062-160.117187 160.3125 0 88.398437 71.828124 160.3125 160.117187 160.3125s160.117187-71.914063 160.117187-160.3125zm0 0"/><path d="m100.234375 281.074219c5.136719 2.890625 11.546875 5.128906 19.074219 5.128906 11.484375 0 25.574218-5.207031 41.71875-21.246094 9.953125-9.886719 17.875-21.285156 23.601562-33.949219.898438.058594 1.800782.097657 2.710938.097657 7.824218 0 15.152344-2.164063 21.421875-5.914063 3.183593 5.632813 5.800781 11.496094 7.785156 17.511719 1.613281 4.914063 2.53125 10.230469 3.417969 15.375 1.878906 10.867187 3.820312 22.109375 12.921875 27.695313 3.414062 2.089843 7.351562 3.136718 11.996093 3.136718 4.167969 0 8.90625-.84375 14.339844-2.519531h.003906c20.726563-6.40625 52.1875-38.929687 51.511719-69.027344-.335937-14.910156-8.386719-34.679687-44.851562-44.175781-13.503907-3.503906-27.34375-4.507812-41.21875-3-3.214844-6.304688-7.976563-11.699219-13.789063-15.664062 3.722656-5.246094 7.925782-10.097657 12.570313-14.464844 3.761719-3.542969 8.1875-6.628906 12.464843-9.613282 9.042969-6.300781 18.390626-12.816406 19.605469-23.429687.859375-7.546875-2.492187-15.222656-10.554687-24.152344 0 0-.003906-.003906-.003906-.003906-14.550782-16.089844-57.285157-30.882813-84.246094-17.570313-13.378906 6.605469-27.890625 22.269532-21.058594 59.386719 2.535156 13.761719 7.480469 26.75 14.71875 38.679688-5.582031 7.121093-8.925781 16.082031-8.925781 25.8125 0 .03125.003906.058593.003906.089843-6.441406-.128906-12.796875-.863281-18.980469-2.21875-5.046875-1.113281-10.089844-3.039062-14.96875-4.902343-10.289062-3.929688-20.925781-7.996094-30.367187-3.015625-6.714844 3.542968-11.148438 10.648437-13.960938 22.359375-5.078125 21.140625 6.824219 64.835937 33.058594 79.59375zm129-91.902344c0-1.457031-.078125-2.898437-.222656-4.320313-.003907-.007812 0-.015624 0-.023437 11.152343-.910156 22.257812.050781 33.105469 2.863281 22 5.730469 33.316406 15.828125 33.636718 30.007813.496094 22.066406-25.171875 49.496093-40.953125 54.371093-6.6875 2.066407-11.6875 2.394532-14.078125.929688-3.324218-2.039062-4.617187-9.535156-5.988281-17.472656-.933594-5.410156-1.992187-11.542969-3.953125-17.507813-2.613281-7.917969-6.144531-15.597656-10.523438-22.894531-.003906-.015625-.007812-.03125-.011718-.046875 5.621094-7.136719 8.988281-16.132813 8.988281-25.90625zm-14.988281 0c0 14.859375-12.070313 26.949219-26.90625 26.949219-14.832032 0-26.902344-12.089844-26.902344-26.949219 0-14.84375 12.070312-26.921875 26.902344-26.921875 14.835937 0 26.90625 12.078125 26.90625 26.921875zm-46.894532-110.445313c5.148438-2.539062 11.367188-3.625 17.957032-3.625 18.707031 0 40.34375 8.753907 48.535156 17.808594 4.695312 5.199219 7.105469 9.605469 6.785156 12.402344-.445312 3.890625-6.679687 8.238281-13.285156 12.839844-4.503906 3.140625-9.605469 6.699218-14.164062 10.992187-6.105469 5.742188-11.558594 12.1875-16.269532 19.21875-.078125-.019531-.15625-.023437-.238281-.039062-3.003906-.6875-6.125-1.0625-9.332031-1.0625-7.851563 0-15.203125 2.179687-21.492188 5.953125-.019531 0-.035156.003906-.050781.003906-5.539063-9.71875-9.367187-20.199219-11.402344-31.253906-4.121093-22.410156.234375-36.957032 12.957031-43.238282zm-85.597656 126.257813v-.003906c1.632813-6.820313 3.898438-11.292969 6.378906-12.601563.773438-.40625 1.730469-.585937 2.835938-.585937 3.8125 0 9.375 2.125 15.191406 4.347656 5.136719 1.960937 10.957032 4.183594 17.09375 5.539063 8.144532 1.785156 16.519532 2.648437 25.011719 2.59375.003906 0 .007813.003906.007813.003906 3.929687 10.152344 11.695312 18.402344 21.511718 22.957031.015625.011719.03125.027344.042969.039063-4.867187 10.027343-11.359375 19.101562-19.363281 27.050781-16.128906 16.019531-30.558594 20.625-42.886719 13.6875-19.230469-10.816407-29.699219-46.933594-25.824219-63.027344zm0 0"/><path d="m195.15625 169.195312c-2.472656-1.007812-5.082031-1.519531-7.757812-1.519531-5.296876 0-10.335938 2-14.207032 5.648438-4.117187 3.890625-6.480468 9.390625-6.480468 15.082031 0 1.472656.164062 2.964844.488281 4.445312 1.734375 7.894532 7.9375 14.089844 15.761719 15.769532 1.46875.324218 2.964843.488281 4.4375.488281 5.292968 0 10.320312-1.992187 14.148437-5.59375 4.171875-3.902344 6.566406-9.410156 6.566406-15.113281 0-2.285156-.363281-4.496094-1.078125-6.570313-1.921875-5.769531-6.261718-10.378906-11.878906-12.636719zm-3.863281 23.390626c-1.050781.992187-2.433594 1.535156-3.894531 1.535156-.390626 0-.8125-.046875-1.257813-.144532-2.132813-.457031-3.824219-2.164062-4.304687-4.335937-.089844-.414063-.136719-.839844-.136719-1.234375 0-1.613281.636719-3.101562 1.777343-4.183594.757813-.710937 2.050782-1.5625 3.921876-1.5625.738281 0 1.421874.132813 2.132812.425782 1.542969.617187 2.773438 1.929687 3.296875 3.503906.011719.039062.023437.074218.035156.109375.171875.496093.265625 1.085937.265625 1.707031-.003906 1.589844-.648437 3.070312-1.835937 4.179688zm0 0"/><path d="m303.277344 424.726562h-45.386719l-15.179687-58.605468c76.242187-23.640625 131.785156-94.898438 131.785156-178.90625 0-103.230469-83.894532-187.214844-187.011719-187.214844-103.105469 0-186.984375 83.984375-186.984375 187.214844 0 84.003906 55.527344 155.261718 131.757812 178.90625l-15.179687 58.605468h-45.386719c-17.464844 0-31.671875 14.222657-31.671875 31.703126v23.867187c0 17.480469 14.207031 31.703125 31.671875 31.703125h231.582032c17.464843 0 31.671874-14.222656 31.671874-31.703125v-23.867187c0-17.480469-14.207031-31.703126-31.667968-31.703126zm-287.789063-237.511718c0-94.96875 77.15625-172.230469 171.996094-172.230469 94.855469 0 172.023437 77.261719 172.023437 172.230469 0 94.984375-77.167968 172.257812-172.023437 172.257812-94.839844 0-171.996094-77.273437-171.996094-172.257812zm226.917969 237.511718h-109.847656l14.183594-54.757812c13.121093 2.929688 26.75 4.488281 40.742187 4.488281 13.988281 0 27.617187-1.558593 40.738281-4.488281zm77.554688 55.570313c0 9.21875-7.484376 16.71875-16.683594 16.71875h-231.585938c-9.199218 0-16.683594-7.5-16.683594-16.71875v-23.867187c0-9.214844 7.484376-16.714844 16.683594-16.714844h51.167969.023437.019532 15.8125v11.5c0 4.136718 3.355468 7.492187 7.492187 7.492187s7.492188-3.355469 7.492188-7.492187v-11.5h22.808593v11.5c0 4.136718 3.355469 7.492187 7.492188 7.492187s7.492188-3.355469 7.492188-7.492187v-11.5h22.808593v11.5c0 4.136718 3.355469 7.492187 7.492188 7.492187 4.140625 0 7.496093-3.355469 7.496093-7.492187v-11.5h22.777344.015625.023438 51.167969c9.199218 0 16.683593 7.5 16.683593 16.714844v23.867187zm0 0"/></svg>