<svg id="Layer_5" enable-background="new 0 0 64 64" height="512" viewBox="0 0 64 64" width="512" xmlns="http://www.w3.org/2000/svg"><path d="m60 1h-56c-1.654 0-3 1.346-3 3v18c0 1.654 1.346 3 3 3h3.382l3 6h43.236l3-6h3.382c1.654 0 3-1.346 3-3v-18c0-1.654-1.346-3-3-3zm-15 22v-2h10v2zm-36-2h10v2h-10zm12 0h10v2h-10zm12 0h10v2h-10zm22-2h-46v-16h46zm-52 3v-18c0-.551.449-1 1-1h3v20h-3c-.551 0-1-.449-1-1zm49.382 7h-40.764l-2-4h44.764zm8.618-7c0 .551-.449 1-1 1h-3v-20h3c.551 0 1 .449 1 1z"/><path d="m51 15h2v2h-2z"/><path d="m47 15h2v2h-2z"/><path d="m43 15h2v2h-2z"/><path d="m11 5h2v2h-2z"/><path d="m15 5h2v2h-2z"/><path d="m19 5h2v2h-2z"/><path d="m36 33h-8v17h-4.921l8.921 12.744 8.921-12.744h-4.921zm1.08 19-5.08 7.256-5.08-7.256h3.08v-17h4v17z"/><path d="m50 39.934c-2.334-.311-4.427-1.697-5.612-3.771l-1.808-3.163h-2.58v4c0 5.729 4.401 10.448 10 10.955v4.966l12.744-8.921-12.744-8.921zm2 2.066v-3.08l7.256 5.08-7.256 5.08v-3.08h-1c-4.962 0-9-4.038-9-9v-.985l.651 1.14c1.708 2.989 4.907 4.845 8.349 4.845z"/><path d="m24 33h-2.58l-1.808 3.163c-1.185 2.075-3.278 3.46-5.612 3.771v-4.854l-12.744 8.92 12.744 8.921v-4.966c5.599-.507 10-5.226 10-10.955zm-2 4c0 4.962-4.038 9-9 9h-1v3.08l-7.256-5.08 7.256-5.08v3.08h1c3.442 0 6.641-1.856 8.349-4.845l.651-1.14z"/></svg>